<svg width="9" height="16" viewBox="0 0 9 16" fill="currentColor" xmlns="http://www.w3.org/2000/svg">
    <path d="M1.33204 4.11505e-08L8.00257 6.67456C8.17762 6.8491 8.31651 7.05646 8.41128 7.28477C8.50605 7.51308 8.55483 7.75784 8.55483 8.00504C8.55483 8.25224 8.50605 8.497 8.41128 8.72531C8.31651 8.95362 8.17762 9.16098 8.00257 9.33552L1.33607 16L0.39264 15.0586L7.26073 8.19453C7.28553 8.16981 7.30522 8.14044 7.31865 8.10809C7.33208 8.07575 7.33899 8.04107 7.33899 8.00605C7.33899 7.97103 7.33208 7.93635 7.31865 7.904C7.30522 7.87166 7.28553 7.84228 7.26073 7.81756L0.390625 0.949477L1.33204 4.11505e-08Z" fill="currentColor"/>
</svg>
